<?xml version="1.0" standalone="no"?>
<!DOCTYPE svg PUBLIC "-//W3C//DTD SVG 1.1//EN"
  "http://www.w3.org/Graphics/SVG/1.1/DTD/svg11.dtd">
<svg width="362mm" height="451.9999999999999mm" viewBox="-183 -225.99999999999994 362 451.9999999999999" xmlns="http://www.w3.org/2000/svg" version="1.1">
	<title>svgOutput</title>
	<desc>made with tinkercad</desc>
<path d="M 178 87.4980010986328 L 174.9980010986328 87.4980010986328 L 174.9980010986328 122.00199890136716 L 148.00100708007812 122.00199890136716 L 148.00100708007812 124.99999999999997 L 131.07200622558594 124.99999999999997 L 107.9990005493164 124.99999999999997 L 107.9990005493164 122.00199890136716 L 81.00299835205078 122.00199890136716 L 81.00299835205078 98.30400085449216 L 81.00299835205078 87.4980010986328 L 78 87.4980010986328 L 78 65.53600311279295 L 78 37.502998352050774 L 81.00299835205078 37.502998352050774 L 81.00299835205078 32.76800155639648 L 81.00299835205078 2.9979999065399165 L 107.9990005493164 2.9979999065399165 L 107.9990005493164 1.1102230246251565e-16 L 131.07200622558594 1.1102230246251565e-16 L 148.00100708007812 1.1102230246251565e-16 L 148.00100708007812 2.9979999065399165 L 174.9980010986328 2.9979999065399165 L 174.9980010986328 37.502998352050774 L 178 37.502998352050774 L 178 54.14530563354491 L 178 59.2713050842285 L 178 64.60034942626952 L 178 65.53600311279295 L 178 87.4980010986328 M -85.00299835205078 3.003000020980834 L -85.00299835205078 20.00300025939941 L -85.00299835205078 37.502998352050774 L -82 37.502998352050774 L -82 87.4980010986328 L -85.00299835205078 87.4980010986328 L -85.00299835205078 121.99800109863278 L -102.00299835205078 121.99800109863278 L -112.00299835205078 121.99800109863278 L -112.00299835205078 124.99999999999997 L -151.9980010986328 124.99999999999997 L -151.9980010986328 121.99800109863278 L -178.9980010986328 121.99800109863278 L -178.9980010986328 87.4980010986328 L -182 87.4980010986328 L -182 37.502998352050774 L -178.9980010986328 37.502998352050774 L -178.9980010986328 3.003000020980834 L -151.9980010986328 3.003000020980834 L -151.9980010986328 1.1102230246251565e-16 L -112.00299835205078 1.1102230246251565e-16 L -112.00299835205078 3.003000020980834 L -102.00299835205078 3.003000020980834 L -91.99800109863281 3.003000020980834 L -85.00299835205078 3.003000020980834 M 45.99800109863281 1.1102230246251565e-16 L 45.99800109863281 3.003000020980834 L 48.50299835205078 3.003000020980834 L 74.99800109863281 3.003000020980834 L 78 3.003000020980834 L 78 32.76800155639648 L 78 37.498001098632805 L 74.99800109863281 37.498001098632805 L 74.99800109863281 87.50299835205077 L 78 87.50299835205077 L 78 90.00299835205077 L 78 98.30400085449216 L 78 121.99800109863278 L 45.99800109863281 121.99800109863278 L 45.99800109863281 124.99999999999997 L 25.003000259399414 124.99999999999997 L 14.003000259399414 124.99999999999997 L 14.003000259399414 121.99800109863278 L -6.502999782562256 121.99800109863278 L -18.003000259399414 121.99800109863278 L -18.003000259399414 124.99999999999997 L -49.99800109863281 124.99999999999997 L -49.99800109863281 121.99800109863278 L -78.99800109863281 121.99800109863278 L -82 121.99800109863278 L -82 87.50299835205077 L -78.99800109863281 87.50299835205077 L -78.99800109863281 37.498001098632805 L -82 37.498001098632805 L -82 20.00300025939941 L -82 3.003000020980834 L -78.99800109863281 3.003000020980834 L -49.99800109863281 3.003000020980834 L -49.99800109863281 1.1102230246251565e-16 L -18.003000259399414 1.1102230246251565e-16 L -18.003000259399414 3.003000020980834 L -6.502999782562256 3.003000020980834 L 14.003000259399414 3.003000020980834 L 14.003000259399414 1.1102230246251565e-16 L 45.99800109863281 1.1102230246251565e-16 M 78 -70.00299835205077 L 74.99800109863281 -70.00299835205077 L 74.99800109863281 -29.997999191284173 L 78 -29.997999191284173 L 78 1.1102230246251565e-16 L 74.99800109863281 1.1102230246251565e-16 L 48.50299835205078 1.1102230246251565e-16 L 46.00299835205078 1.1102230246251565e-16 L 46.00299835205078 -3.003000020980834 L 13.998000144958496 -3.003000020980834 L 13.998000144958496 1.1102230246251565e-16 L -6.502999782562256 1.1102230246251565e-16 L -17.99799919128418 1.1102230246251565e-16 L -17.99799919128418 -3.003000020980834 L -50.00299835205078 -3.003000020980834 L -50.00299835205078 1.1102230246251565e-16 L -78.99800109863281 1.1102230246251565e-16 L -82 1.1102230246251565e-16 L -82 -29.997999191284173 L -78.99800109863281 -29.997999191284173 L -78.99800109863281 -70.00299835205077 L -82 -70.00299835205077 L -82 -99.99999999999997 L -78.99800109863281 -99.99999999999997 L -50.00299835205078 -99.99999999999997 L -50.00299835205078 -96.99800109863278 L -17.99799919128418 -96.99800109863278 L -17.99799919128418 -99.99999999999997 L 13.998000144958496 -99.99999999999997 L 13.998000144958496 -96.99800109863278 L 46.00299835205078 -96.99800109863278 L 46.00299835205078 -99.99999999999997 L 74.99800109863281 -99.99999999999997 L 78 -99.99999999999997 L 78 -70.00299835205077 M -82 -221.99800109863276 L -78.99800109863281 -221.99800109863276 L -50.00199890136719 -221.99800109863276 L -50.00199890136719 -224.99999999999994 L -18.000999450683594 -224.99999999999994 L -18.000999450683594 -221.99800109863276 L 14.00100040435791 -221.99800109863276 L 14.00100040435791 -224.99999999999994 L 46.00199890136719 -224.99999999999994 L 46.00199890136719 -221.99800109863276 L 74.99800109863281 -221.99800109863276 L 78 -221.99800109863276 L 78 -187.50300598144528 L 74.99800109863281 -187.50300598144528 L 74.99800109863281 -137.49800109863278 L 78 -137.49800109863278 L 78 -103.00299835205075 L 74.99800109863281 -103.00299835205075 L 46.00199890136719 -103.00299835205075 L 46.00199890136719 -99.99999999999997 L 14.00100040435791 -99.99999999999997 L 14.00100040435791 -103.00299835205075 L -18.000999450683594 -103.00299835205075 L -18.000999450683594 -99.99999999999997 L -50.00199890136719 -99.99999999999997 L -50.00199890136719 -103.00299835205075 L -78.99800109863281 -103.00299835205075 L -82 -103.00299835205075 L -82 -137.49800109863278 L -78.99800109863281 -137.49800109863278 L -78.99800109863281 -187.50300598144528 L -82 -187.50300598144528 L -82 -221.99800109863276 M 2.3779261112213135 182.96900939941403 L 2.378044605255127 182.96810913085935 L 2.3776965141296387 182.9672698974609 L 1.9391406774520874 182.06318664550778 L 1.4271317720413208 181.73614501953122 L 1.3667205572128296 181.69755554199216 L 1.3660919666290283 181.69706726074216 L 1.3660000562667847 181.6970062255859 L 1.3649910688400269 181.6969299316406 L 0.4748927354812622 181.58004760742185 L 0.3804261386394501 181.61920166015622 L 9.102415950970263e-14 181.77687072753903 L -0.35426729917526245 181.9236907958984 L -0.3551831841468811 181.92413330078122 L -0.901629626750946 182.63542175292966 L -0.9020000100135803 182.63600158691403 L -0.9169847965240479 183.84977722167966 L -0.9169847965240479 183.85111999511716 L -0.3555535674095154 184.67628479003903 L -0.3548927307128906 184.67704772949216 L -9.102415950970263e-14 184.8241271972656 L 0.47426730394363403 185.02069091796872 L 0.47545844316482544 185.02099609374997 L 1.6512672901153564 184.7212982177734 L 1.652000069618225 184.72099304199216 L 1.6521072387695312 184.72096252441403 L 1.652660846710205 184.72023010253903 L 2.2367660999298096 184.04399108886716 L 2.305000066757202 183.9649963378906 L 2.3779261112213135 182.96900939941403 M 9.368674278259277 193.9169311523437 L 9.369999885559082 193.9190063476562 L 10.815535545349121 195.0178833007812 L 10.817532539367676 195.019302368164 L 13.69461727142334 195.8944244384765 L 13.696999549865723 195.89500427246088 L 15.505000114440918 195.69299316406244 L 16.384000778198242 195.29177856445307 L 17.69577980041504 194.6930084228515 L 17.697498321533203 194.69235229492182 L 17.699092864990234 194.690933227539 L 19.033740997314453 193.4581909179687 L 19.69107437133789 192.43522644042963 L 19.69257354736328 192.4319458007812 L 20.144115447998047 191.3030853271484 L 20.144115447998047 187.70074462890622 L 20.143999099731445 187.69799804687497 L 20.14320945739746 187.69633483886716 L 18.19518280029297 184.66540527343747 L 18.194000244140625 184.66400146484372 L 17.202999114990234 183.9579925537109 L 16.384000778198242 183.64497375488278 L 15.506718635559082 183.30966186523435 L 15.503170013427734 183.30879211425778 L 13.696999549865723 183.10699462890622 L 13.695199966430664 183.10737609863278 L 10.291658401489258 184.28717041015622 L 10.291647911071777 184.28718566894528 L 10.288025856018066 184.2903137207031 L 9.368956565856934 185.08551025390622 L 8.617717742919922 186.04154968261716 L 7.889455318450928 187.7048645019531 L 7.888826847076416 187.70658874511716 L 7.848471164703369 188.4160003662109 L 7.7179999351501465 190.70954895019528 L 7.7179412841796875 190.71139526367185 L 8.250094413757324 192.17587280273432 L 8.338313102722168 192.41865539550776 L 8.338717460632324 192.42045593261713 L 8.339241027832031 192.42121887207026 L 9.368674278259277 193.9169311523437 M 16.60686683654785 206.05957031249994 L 16.606311798095703 206.05833435058588 L 16.605302810668945 206.05741882324213 L 16.384000778198242 205.88948059082026 L 15.775237083435059 205.427505493164 L 15.536385536193848 205.24624633789057 L 14.679253578186035 204.96752929687494 L 14.678000450134277 204.96699523925776 L 13.33436107635498 204.99397277832026 L 13.332551956176758 204.9940795898437 L 11.727177619934082 205.75032043457026 L 11.72599983215332 205.75100708007807 L 10.84788990020752 206.76797485351557 L 10.846832275390625 206.7694244384765 L 10.846549987792969 206.77075195312494 L 10.458942413330078 208.95054626464838 L 10.459224700927734 208.95187377929682 L 10.759672164916992 209.9476928710937 L 10.846832275390625 210.23657226562494 L 11.377294540405273 210.965835571289 L 11.377968788146973 210.96694946289057 L 11.378000259399414 210.96699523925776 L 11.379341125488281 210.96781921386713 L 12.889810562133789 211.92784118652338 L 13.774913787841797 212.09667968749994 L 13.77734661102295 212.09680175781244 L 15.535565376281738 211.76113891601557 L 16.384000778198242 211.11648559570307 L 16.604482650756836 210.94895935058588 L 16.606000900268555 210.94799804687494 L 17.160621643066406 210.11308288574213 L 17.350000381469727 209.82800292968744 L 17.574771881103516 208.5043334960937 L 17.575000762939453 208.50346374511713 L 17.574886322021484 208.50210571289057 L 17.50096893310547 208.06680297851557 L 17.350112915039062 207.17843627929682 L 16.60686683654785 206.05957031249994 M -22.230329513549805 171.6416320800781 L -22.229000091552734 171.6419982910156 L -21.316923141479492 171.58406066894528 L -21.3143367767334 171.58322143554685 L -19.67300033569336 170.81100463867185 L -18.827856063842773 169.74407958984372 L -18.82724380493164 169.74324035644528 L -18.8267765045166 169.74259948730466 L -18.82654571533203 169.7412414550781 L -18.378999710083008 168.45553588867185 L -18.605770111083984 166.6563568115234 L -18.606000900268555 166.65499877929685 L -19.67300033569336 165.18600463867185 L -20.881000518798828 164.55400085449216 L -22.229000091552734 164.35499572753903 L -22.231462478637695 164.35615539550778 L -23.129552841186523 164.5279846191406 L -24.576000213623047 165.44450378417966 L -24.66200065612793 165.49899291992185 L -25.368000030517578 166.6660003662109 L -25.650999069213867 167.99899291992185 L -25.368000030517578 169.33200073242185 L -24.66200065612793 170.49800109863278 L -24.660865783691406 170.49879455566403 L -24.576000213623047 170.55256652832028 L -23.349666595458984 171.3296203613281 L -23.128419876098633 171.46980285644528 L -22.230329513549805 171.6416320800781 M -52.23389434814453 171.64123535156247 L -52.231998443603516 171.6419982910156 L -50.88399887084961 171.44299316406247 L -49.67622375488281 170.81164550781247 L -49.6746826171875 170.81066894531247 L -49.152000427246094 170.0915374755859 L -48.708473205566406 169.48133850097653 L -48.6087646484375 169.3441467285156 L -48.608001708984375 169.3430023193359 L -48.381229400634766 167.54382324218747 L -48.38100051879883 167.5424652099609 L -48.3827018737793 167.53936767578122 L -48.60947036743164 166.65325927734372 L -49.050025939941406 165.85307312011716 L -49.152000427246094 165.7686614990234 L -50.4486083984375 164.69525146484372 L -51.317726135253906 164.41352844238278 L -51.319000244140625 164.4129943847656 L -51.31931686401367 164.41302490234372 L -53.12916564941406 164.5268859863281 L -53.13142013549805 164.52719116210935 L -54.66286849975586 165.49821472167966 L -54.66400146484375 165.49899291992185 L -55.369998931884766 166.6660003662109 L -55.65299987792969 167.99899291992185 L -55.369998931884766 169.33200073242185 L -54.66471481323242 170.49682617187497 L -54.66343307495117 170.4983978271484 L -53.95709228515625 170.94624328613278 L -53.13198471069336 171.46940612792966 L -52.23389434814453 171.64123535156247 M -82 195.00300598144526 L -78.99800109863281 195.00300598144526 L -78.99800109863281 189.86199951171872 L -78.99800109863281 185.32313537597653 L -78.99800109863281 154.99800109863278 L -82 154.99800109863278 L -82 140.99800109863278 L -82 124.99999999999997 L -78.99800109863281 124.99999999999997 L -50.00299835205078 124.99999999999997 L -50.00299835205078 128.00300598144528 L -18.000999450683594 128.00300598144528 L -18.000999450683594 124.99999999999997 L -6.502999782562256 124.99999999999997 L 14.00100040435791 124.99999999999997 L 14.00100040435791 128.00300598144528 L 25.003000259399414 128.00300598144528 L 46.00299835205078 128.00300598144528 L 46.00299835205078 124.99999999999997 L 74.99800109863281 124.99999999999997 L 78 124.99999999999997 L 78 154.99800109863278 L 74.99800109863281 154.99800109863278 L 74.99800109863281 195.00300598144526 L 78 195.00300598144526 L 78 224.99999999999994 L 74.99800109863281 224.99999999999994 L 46.00299835205078 224.99999999999994 L 46.00299835205078 221.99800109863276 L 25.003000259399414 221.99800109863276 L 23.70647430419922 221.99800109863276 L 19.866641998291016 221.99800109863276 L 18.713823318481445 221.99800109863276 L 16.384000778198242 221.99800109863276 L 14.00100040435791 221.99800109863276 L 14.00100040435791 222.80793762207026 L 14.00100040435791 224.99999999999994 L 0 224.99999999999994 L -3.328385591506958 224.99999999999994 L -18.000999450683594 224.99999999999994 L -18.000999450683594 221.99800109863276 L -50.00299835205078 221.99800109863276 L -50.00299835205078 224.99999999999994 L -65.53600311279297 224.99999999999994 L -72.85399627685547 224.99999999999994 L -74.21643829345703 224.99999999999994 L -82 224.99999999999994 L -82 224.267105102539 L -82 221.4593658447265 L -82 213.97209167480463 L -82 196.60800170898432 L -82 195.00300598144526 M -0.9010497331619263 215.3689575195312 L 0 216.27000427246088 L 0.03700000047683716 216.30700683593744 L 1.1528695821762085 216.39390563964838 L 1.1545039415359497 216.39372253417963 L 1.7578927278518677 216.08103942871088 L 2.3043391704559326 215.36875915527338 L 2.305000066757202 215.36799621582026 L 2.3050153255462646 215.36788940429682 L 2.421881675720215 214.47790527343744 L 2.421881675720215 214.47656249999994 L 2.0782296657562256 213.64839172363276 L 2.0772793292999268 213.64744567871088 L 1.3660000562667847 213.10099792480463 L 0.03700000047683716 213.10099792480463 L 0 213.1380004882812 L -0.9020000100135803 214.03999328613276 L -1.0489394664764404 214.70372009277338 L -1.0490000247955322 214.7039947509765 L -1.048666000366211 214.70495605468744 L -0.9018148183822632 215.36828613281244 L -0.9010497331619263 215.3689575195312 M 113.98500061035156 35.90700149536132 L 111.5250015258789 36.68099975585937 L 109.14900207519531 37.68199920654296 L 106.87699890136719 38.9000015258789 L 104.7300033569336 40.32600021362304 L 102.7239990234375 41.9469985961914 L 100.87999725341797 43.7490005493164 L 99.21299743652344 45.71500015258788 L 98.30400085449219 47.016914367675774 L 97.73699951171875 47.82899856567382 L 96.46499633789062 50.07199859619139 L 95.40899658203125 52.42399978637694 L 94.5780029296875 54.86399841308592 L 93.97899627685547 57.372001647949205 L 93.61799621582031 59.92499923706053 L 93.49700164794922 62.499999999999986 L 93.61799621582031 65.07499694824217 L 93.68318939208984 65.53600311279295 L 93.97899627685547 67.62799835205077 L 94.5780029296875 70.13600158691405 L 95.40899658203125 72.57599639892577 L 96.46499633789062 74.92800140380858 L 97.73699951171875 77.17099761962889 L 98.30400085449219 77.9830856323242 L 99.21299743652344 79.28500366210936 L 100.87999725341797 81.25199890136717 L 101.56394958496094 81.9199981689453 L 102.7239990234375 83.05300140380858 L 104.7300033569336 84.6740036010742 L 106.87699890136719 86.09999847412108 L 109.14900207519531 87.31800079345702 L 111.5250015258789 88.31900024414061 L 113.98500061035156 89.09300231933592 L 116.50599670410156 89.63300323486327 L 119.06600189208984 89.93399810791014 L 121.64399719238281 89.99400329589842 L 124.21600341796875 89.81300354003905 L 126.76000213623047 89.39199829101561 L 129.2519989013672 88.73500061035155 L 131.07200622558594 88.06744384765624 L 131.67300415039062 87.8470001220703 L 134 86.73600006103514 L 136.21200561523438 85.41200256347655 L 138.29100036621094 83.88700103759764 L 140.2169952392578 82.1740036010742 L 141.97500610351562 80.28700256347655 L 143.5489959716797 78.24500274658202 L 144.9239959716797 76.06400299072264 L 146.08900451660156 73.76499938964842 L 147.03399658203125 71.36599731445311 L 147.75 68.88899993896483 L 148.22999572753906 66.35600280761717 L 148.3072967529297 65.53600311279295 L 148.4720001220703 63.789001464843736 L 148.4720001220703 61.210998535156236 L 148.22999572753906 58.644001007080064 L 147.75 56.11100006103514 L 147.03399658203125 53.633998870849595 L 146.08900451660156 51.23500061035155 L 144.9239959716797 48.936000823974595 L 143.5489959716797 46.75500106811523 L 141.97500610351562 44.713001251220696 L 140.2169952392578 42.82600021362304 L 138.29100036621094 41.11299896240234 L 136.21200561523438 39.588001251220696 L 134 38.26399993896484 L 131.67300415039062 37.15299987792968 L 131.07200622558594 36.93255996704101 L 129.2519989013672 36.26499938964843 L 126.76000213623047 35.60800170898437 L 124.21600341796875 35.187000274658196 L 121.64399719238281 35.00600051879882 L 119.06600189208984 35.06600189208984 L 116.50599670410156 35.36700057983398 L 114.68800354003906 35.756416320800774 L 113.98500061035156 35.90700149536132 M -98.5459976196289 19.757999420166012 L -97 20.00300025939941 L -95.4540023803711 19.757999420166012 L -94.05999755859375 19.047000885009762 L -92.9530029296875 17.940000534057614 L -92.24199676513672 16.545999526977536 L -92.2164306640625 16.38400077819824 L -91.99800109863281 14.999999999999996 L -92.24199676513672 13.454000473022457 L -92.9530029296875 12.060000419616696 L -94.05999755859375 10.953000068664549 L -95.4540023803711 10.241999626159666 L -97 9.998000144958494 L -98.5459976196289 10.241999626159666 L -99.94000244140625 10.953000068664549 L -101.0469970703125 12.060000419616696 L -101.75800323486328 13.454000473022457 L -102.00299835205078 14.999999999999996 L -101.78367614746094 16.38400077819824 L -101.75800323486328 16.545999526977536 L -101.0469970703125 17.940000534057614 L -99.94000244140625 19.047000885009762 L -98.5459976196289 19.757999420166012 M -5.156000137329102 54.00099945068358 L -6.502999782562256 62.499999999999986 L -5.156000137329102 70.99900054931639 L -1.25 78.66600036621092 L 0 79.91600036621092 L 4.834000110626221 84.74999999999999 L 12.50100040435791 88.65599822998045 L 21 90.00299835205077 L 29.499000549316406 88.65599822998045 L 37.16600036621094 84.74999999999999 L 43.25 78.66600036621092 L 47.15599822998047 70.99900054931639 L 48.50299835205078 62.499999999999986 L 47.15599822998047 54.00099945068358 L 43.25 46.333999633789055 L 37.16600036621094 40.24999999999999 L 29.499000549316406 36.344001770019524 L 21 34.998001098632805 L 12.50100040435791 36.344001770019524 L 4.834000110626221 40.24999999999999 L 0 45.083999633789055 L -1.25 46.333999633789055 L -5.156000137329102 54.00099945068358 M -3.3707435131073 186.5010070800781 L -3.871393918991089 186.5010070800781 L -9.79039478302002 186.5010070800781 L -32.768001556396484 186.5010070800781 L -65.53600311279297 186.5010070800781 L -72.85399627685547 186.5010070800781 L -72.85399627685547 196.60800170898432 L -72.85399627685547 211.50399780273432 L -65.53600311279297 211.50399780273432 L -50.00299835205078 211.50399780273432 L -18.000999450683594 211.50399780273432 L -1.7573126554489136 211.50399780273432 L -1.1490000486373901 211.50399780273432 L -1.1490000486373901 196.60800170898432 L -1.1490000486373901 186.5010070800781 L -3.3707435131073 186.5010070800781 M -74.04000091552734 181.6970062255859 L -75.36799621582031 181.6970062255859 L -76.30799865722656 182.63600158691403 L -76.30799865722656 183.9649963378906 L -76.3070297241211 183.96589660644528 L -75.36798095703125 184.90394592285153 L -75.26025390625 184.92779541015622 L -74.70465087890625 185.05079650878903 L -74.70333099365234 185.05085754394528 L -74.04000091552734 184.90400695800778 L -73.10099792480469 183.9649963378906 L -73.10099792480469 182.63600158691403 L -74.04000091552734 181.6970062255859 M -75.36840057373047 216.3067779541015 L -74.70507049560547 216.453628540039 L -74.70333099365234 216.45385742187494 L -74.04000091552734 216.30700683593744 L -74.03923797607422 216.3063354492187 L -73.10118865966797 215.36828613281244 L -73.10102081298828 215.36685180664057 L -73.10102081298828 214.04019165039057 L -73.46664428710938 213.46777343749994 L -74.03907012939453 213.10214233398432 L -74.04000091552734 213.10099792480463 L -74.04085540771484 213.10099792480463 L -75.36665344238281 213.10099792480463 L -75.36840057373047 213.10122680664057 L -76.30744934082031 214.03927612304682 L -76.30799865722656 214.03999328613276 L -76.30807495117188 214.04100036621088 L -76.30807495117188 215.32382202148432 L -76.30807495117188 215.36766052246088 L -75.94244384765625 215.9400787353515 L -75.94181823730469 215.94114685058588 L -75.36840057373047 216.3067779541015 z" fill="none" stroke="rgb(255,0,0)" stroke-width="0.001mm" />
</svg>